<svg version="1.1" xmlns="http://www.w3.org/2000/svg" style="display: block;" viewBox="446.667 92 1228 872" width="1228" height="872" preserveAspectRatio="none">
<defs>
	<linearGradient id="svgi_r_1j_9ca7cf47-a4e8-4386-9bae-c812b74f1d97__Gradient1" gradientUnits="userSpaceOnUse" x1="912.768" y1="816.39" x2="947.445" y2="778.643">
		<stop class="stop0" offset="0" stop-opacity="0.282353" stop-color="rgb(254,254,255)"></stop>
		<stop class="stop1" offset="1" stop-opacity="0.654902" stop-color="rgb(243,246,246)"></stop>
	</linearGradient>
	<linearGradient id="svgi_r_1j_9ca7cf47-a4e8-4386-9bae-c812b74f1d97__Gradient2" gradientUnits="userSpaceOnUse" x1="639.159" y1="837.31" x2="777.423" y2="648.715">
		<stop class="stop0" offset="0" stop-opacity="1" stop-color="rgb(193,225,245)"></stop>
		<stop class="stop1" offset="1" stop-opacity="1" stop-color="rgb(239,247,254)"></stop>
	</linearGradient>
</defs>
<path transform="translate(0,0)" fill="rgb(32,68,114)" d="M 1295.98 320.912 C 1294.48 295.335 1306.4 287.255 1323.66 308.635 C 1334.84 322.486 1353.56 333.762 1369.31 341.296 C 1415.86 362.164 1454.63 387.341 1463.09 441.487 C 1501.72 370.89 1537.18 380.361 1606.2 357.366 C 1616.34 353.986 1636.85 336.678 1644 337.685 C 1645.64 338.599 1647.09 339.091 1647.8 340.729 C 1653.08 350.678 1648.9 380.241 1646.75 391.251 C 1635.89 447.095 1595.37 491.494 1540.57 506.976 C 1518.96 513.079 1496.71 517.492 1487.93 540.331 C 1487.51 543.726 1487.05 548.492 1486.3 551.715 C 1482.86 632.618 1443.3 714.703 1383.9 769.391 C 1318.22 829.862 1248.68 857.315 1164.48 879.532 C 1159.08 874.805 1153.72 870.038 1148.4 865.233 C 1147.23 863.422 1138.29 853.481 1136.36 851.281 C 1131.53 844.873 1126.32 838.299 1122.26 831.411 C 1086.98 780.812 1058.1 744.801 995.631 728.327 C 1022.25 742.876 1040.1 751.426 1062.67 773.443 C 1097.99 807.892 1116.3 853.825 1153.86 885.833 C 1156.04 887.689 1160.7 891.74 1163.48 891.702 C 1173.55 899.344 1201.16 911.809 1204 920.572 C 1208.36 934.043 1160.07 938.618 1153.66 939.019 C 1101.35 942.291 1046.18 925.191 1004.26 894.096 C 1000.18 888.998 977.363 870.695 970.925 864.911 C 968.155 860.606 959.637 851.052 955.893 846.004 C 945.383 831.835 937.649 817.356 930.219 801.47 C 925.521 791.423 922.251 773.113 918.626 764.352 L 918.226 763.409 C 916.989 753.03 916.163 743.527 916.7 733.035 C 907.211 750.318 906.619 763.124 911.645 782.1 C 912.641 786.671 913.347 789.879 914.855 794.289 C 924.856 820.547 935.586 839.002 951.808 861.763 C 954.12 864.336 957.246 867.904 959.837 870.122 C 969.757 882.651 984.862 891.963 995.148 902.79 C 913.94 910.362 832.035 903.969 752.985 883.889 C 678.438 864.396 611.248 831.014 557.621 774.618 C 548.021 764.522 533.178 747.908 526.237 736.064 C 523.907 733.3 521.024 728.579 519.122 725.419 C 501.08 695.439 487.235 662.131 478.546 628.252 C 477.246 623.185 474.851 613.913 475.775 608.693 C 476.104 606.838 479.751 605.211 481.684 604.039 C 477.02 598.881 476.304 597.628 473.373 591.102 C 466.43 559.103 483.127 502.562 499.105 474.075 C 532.957 413.06 595.047 369.483 662.463 352.197 C 809.09 314.602 964.177 356.201 1061.46 473.941 C 1073.87 488.984 1085.86 504.373 1097.41 520.09 C 1128.68 563.085 1157.46 609.292 1204.42 636.671 C 1280.86 681.237 1381.15 637.52 1412.82 558.292 C 1418.31 544.575 1423.09 530.214 1418.89 515.473 C 1406.4 494.16 1382.52 486.365 1362.54 473.112 C 1332.76 453.356 1308.55 423.507 1299.67 388.479 C 1294.69 368.834 1291.34 340.784 1295.98 320.912 z"></path>
<path transform="translate(0,0)" fill="url(#svgi_r_1j_9ca7cf47-a4e8-4386-9bae-c812b74f1d97__Gradient2)" d="M 481.684 604.039 C 484.001 603.27 496.934 606.09 500.258 606.653 C 597.45 623.121 704.17 695.514 803.203 663.984 C 827.822 721.838 859.051 762.61 914.855 794.289 C 924.856 820.547 935.586 839.002 951.808 861.763 C 954.12 864.336 957.246 867.904 959.837 870.122 C 969.757 882.651 984.862 891.963 995.148 902.79 C 913.94 910.362 832.035 903.969 752.985 883.889 C 678.438 864.396 611.248 831.014 557.621 774.618 C 548.021 764.522 533.178 747.908 526.237 736.064 C 523.907 733.3 521.024 728.579 519.122 725.419 C 501.08 695.439 487.235 662.131 478.546 628.252 C 477.246 623.185 474.851 613.913 475.775 608.693 C 476.104 606.838 479.751 605.211 481.684 604.039 z"></path>
<path transform="translate(0,0)" fill="rgb(158,204,234)" d="M 697.846 839.357 C 694.219 835.896 675.683 822.843 669.583 817.84 C 626.034 782.332 589.489 736.531 568.592 684.118 C 566.191 678.096 555.979 651.379 560.25 646.256 C 563.431 648.442 562.674 648.472 564.401 652.683 C 570.431 669.166 576.051 683.974 583.919 699.746 C 612.401 756.845 658.696 803.627 711.265 839.039 C 716.847 842.8 724.027 847.809 730.134 850.553 C 732.307 853.401 760.935 868.529 764.751 867.957 L 763.504 865.998 L 763.868 865.046 C 788.925 867.492 813.456 877.037 842.373 876.172 C 837.731 874.142 833.041 872.478 828.293 870.649 C 747.299 839.448 674.394 783.625 632.883 706.256 C 629.234 699.456 616.413 672.827 618.075 665.833 L 619.458 665.221 C 623.047 667.258 625.59 673.842 627.263 677.538 C 647.55 722.332 678.661 765.444 717.048 796.209 L 724.848 802.799 C 759.931 829.673 795.638 850.698 837.023 866.784 C 841.107 868.371 854.556 873.267 857.907 873.777 C 859.436 872.669 872.351 871.141 874.748 872.341 C 886.618 873.865 932.79 875.461 940.993 870.789 C 938.486 867.251 918.863 863.687 913.33 862.138 C 883.71 853.847 857.788 841.116 830.348 827.482 C 775.627 800.292 721.165 765.301 693.217 708.7 C 690.728 703.659 682.211 691.36 686.295 686.743 C 688.156 687.206 689.964 688.938 690.754 690.562 C 727.416 766.014 801.455 806.91 875.1 839.375 C 886.655 844.468 941.314 866.052 951.808 861.763 C 954.12 864.336 957.246 867.904 959.837 870.122 C 969.757 882.651 984.862 891.963 995.148 902.79 C 913.94 910.362 832.035 903.969 752.985 883.889 C 678.438 864.396 611.248 831.014 557.621 774.618 C 548.021 764.522 533.178 747.908 526.237 736.064 C 532.956 737.747 538.68 747.282 543.331 752.852 C 565.042 778.854 599.336 813.465 629.304 828.546 C 626.826 823.387 623.751 822.098 623.692 818.373 C 625.468 816.93 625.358 816.918 627.54 816.359 C 624.08 813.529 617.335 807.693 613.797 805.579 L 613.507 804.473 L 613.92 803.155 C 615.625 804.325 617.862 805.991 619.644 806.89 C 628.74 818.482 650.409 830.321 662.627 839.347 C 665.633 841.568 663.488 844.944 662.336 847.568 C 666.006 850.281 668.647 851.831 673.393 850.602 C 679.343 849.061 681.548 851.324 687.032 854.482 L 687.598 855.603 L 686.151 858.371 C 700.086 868.077 704.748 855.034 711.746 865.993 C 715.39 871.698 734.762 875.786 741.451 877.513 C 744.386 876.344 753.398 870.298 756.473 868.265 C 750.702 862.111 725.459 850.558 718.345 859.784 C 715.55 859.418 714.856 859.262 712.088 859.539 C 711.165 857.279 711.306 856.721 711.283 854.221 C 703.444 851.238 697.484 847.919 689.087 847.819 C 687.518 847.801 684.873 843.843 683.599 843.109 C 677.744 840.697 677.617 841.684 673.048 837.29 L 673.824 837.714 C 680.506 841.3 689.127 842.784 695.536 846.402 C 695.984 843.29 695.974 841.988 697.846 839.357 z"></path>
<path transform="translate(0,0)" fill="rgb(195,227,245)" d="M 695.536 846.402 C 695.984 843.29 695.974 841.988 697.846 839.357 C 705.699 843.97 714.5 848.898 721.864 854.105 C 710.482 851.851 706.286 851.144 695.536 846.402 z"></path>
<path transform="translate(0,0)" fill="rgb(195,227,245)" d="M 857.907 873.777 C 859.436 872.669 872.351 871.141 874.748 872.341 C 873.028 874.09 873.41 873.09 873.3 875.319 C 878.143 878.228 885.952 880.844 891.423 882.895 C 882.311 882.147 866.703 877.266 857.907 873.777 z"></path>
<path transform="translate(0,0)" fill="rgb(248,252,252)" d="M 564.401 652.683 L 565.66 651.183 C 571.015 653.283 574.397 666.627 576.831 672.113 C 599.574 723.377 626.538 761.473 667.939 799.404 C 680.25 810.833 693.322 821.414 707.064 831.075 C 714.019 836.053 721.734 840.84 728.487 846.047 C 731.006 847.99 730.451 848.227 730.134 850.553 C 724.027 847.809 716.847 842.8 711.265 839.039 C 658.696 803.627 612.401 756.845 583.919 699.746 C 576.051 683.974 570.431 669.166 564.401 652.683 z"></path>
<path transform="translate(0,0)" fill="rgb(248,252,252)" d="M 512.399 636.779 L 514.027 635.321 C 517.954 638.103 521.277 651.516 523.142 656.562 C 527.371 667.908 532.033 679.087 537.118 690.075 C 557.061 732.74 583.059 767.499 616.239 800.791 L 613.062 800.743 C 597.14 791.051 572.548 759.048 561.191 743.904 C 536.459 704.19 523.89 683.669 512.399 636.779 z"></path>
<path transform="translate(0,0)" fill="rgb(158,204,234)" d="M 560.244 746.472 C 558.832 745.112 558.87 745.24 556.972 744.659 C 558.791 750.368 564.105 753.706 564.73 757.579 C 562.48 757.242 561.621 755.848 560.128 753.995 C 542.239 731.775 503.177 659.962 507.892 631.709 L 509.299 630.764 C 511.721 632.559 511.352 633.436 512.399 636.779 C 523.89 683.669 536.459 704.19 561.191 743.904 L 560.244 746.472 z"></path>
<path transform="translate(0,0)" fill="rgb(195,227,245)" d="M 561.191 743.904 C 572.548 759.048 597.14 791.051 613.062 800.743 L 616.239 800.791 C 619.324 802.262 620.13 803.084 619.644 806.89 C 617.862 805.991 615.625 804.325 613.92 803.155 L 613.507 804.473 C 603.543 797.053 601.595 795.677 592.714 786.294 C 590.809 787.282 590.734 787.217 588.716 787.576 C 587.619 785.783 586.567 784.483 586.332 782.421 L 589.4 782.33 C 576.51 768.342 571.003 759.341 560.244 746.472 L 561.191 743.904 z"></path>
<path transform="translate(0,0)" fill="rgb(248,252,252)" d="M 717.048 796.209 L 720 794.664 C 724.71 796.678 723.267 795.377 726.177 799.622 C 725.735 801.294 725.813 801.392 724.848 802.799 L 717.048 796.209 z"></path>
<path transform="translate(0,0)" fill="rgb(26,51,86)" d="M 1122.26 831.411 C 1135.89 828.693 1149.92 828.692 1163.64 826.776 C 1295.93 808.282 1427.39 725.634 1469.99 593.748 C 1473.12 584.074 1481.13 559.652 1486.3 551.715 C 1482.86 632.618 1443.3 714.703 1383.9 769.391 C 1318.22 829.862 1248.68 857.315 1164.48 879.532 C 1159.08 874.805 1153.72 870.038 1148.4 865.233 C 1147.23 863.422 1138.29 853.481 1136.36 851.281 C 1131.53 844.873 1126.32 838.299 1122.26 831.411 z"></path>
<path transform="translate(0,0)" fill="rgb(26,51,86)" d="M 1647.8 340.729 C 1653.08 350.678 1648.9 380.241 1646.75 391.251 C 1635.89 447.095 1595.37 491.494 1540.57 506.976 C 1518.96 513.079 1496.71 517.492 1487.93 540.331 C 1482.72 496.809 1527.58 492.271 1556.05 477.861 C 1573.29 469.149 1588.8 457.358 1601.8 443.069 C 1621.47 421.286 1649.28 369.505 1647.8 340.729 z"></path>
<path transform="translate(0,0)" fill="rgb(26,51,86)" d="M 473.373 591.102 C 480.717 593.388 484.209 592.814 491.597 593.424 C 586.765 601.273 697.902 681.011 794.115 656.942 C 791.481 653.688 787.602 649.768 787.249 645.805 L 788.312 644.118 C 796.022 644.021 803.419 656.8 803.203 663.984 C 704.17 695.514 597.45 623.121 500.258 606.653 C 496.934 606.09 484.001 603.27 481.684 604.039 C 477.02 598.881 476.304 597.628 473.373 591.102 z"></path>
<path transform="translate(0,0)" fill="rgb(26,51,86)" d="M 1295.98 320.912 C 1296.82 340.744 1299.47 346.181 1305.31 364.483 C 1315.3 395.77 1326.87 418.323 1351.41 440.883 C 1357.47 446.457 1363.94 451.561 1370.77 456.15 C 1386.37 466.719 1418.62 482.926 1422.06 505.188 C 1422.35 507.115 1419.44 511.972 1418.89 515.473 C 1406.4 494.16 1382.52 486.365 1362.54 473.112 C 1332.76 453.356 1308.55 423.507 1299.67 388.479 C 1294.69 368.834 1291.34 340.784 1295.98 320.912 z"></path>
<path transform="translate(0,0)" fill="rgb(26,51,86)" d="M 837.858 567.165 C 856.523 564.697 873.686 577.745 876.299 596.391 C 878.912 615.037 865.996 632.3 847.371 635.056 C 828.542 637.843 811.048 624.755 808.406 605.904 C 805.765 587.054 818.988 569.661 837.858 567.165 z"></path>
<path transform="translate(0,0)" fill="rgb(248,252,252)" d="M 842.243 576.558 C 847.219 575.174 852.555 576.579 856.205 580.234 C 859.855 583.889 861.253 589.227 859.862 594.202 C 858.472 599.177 854.509 603.016 849.493 604.249 C 841.897 606.116 834.21 601.54 832.229 593.974 C 830.248 586.408 834.707 578.653 842.243 576.558 z"></path>
<path transform="translate(0,0)" fill="rgb(26,51,86)" d="M 766.326 350.066 C 776.608 349.026 807.538 348.127 813.379 357.618 L 812.748 359.89 C 810.19 362.641 807.812 363.131 804.253 364.352 C 795.133 366.663 758.861 366.462 758.777 354.195 C 760.42 351.433 763.242 350.999 766.326 350.066 z"></path>
<path transform="translate(0,0)" fill="rgb(100,181,224)" d="M 785.846 273.362 C 782.711 257.874 779.986 247.343 775.729 232.267 C 767.529 203.226 747.596 167.156 766.768 139.151 C 774.42 127.973 786.097 119.971 799.258 117.566 C 811.418 115.314 823.971 118.112 834.024 125.313 C 874.294 154.235 840.856 199.796 820.828 227.396 C 812.963 238.235 797.428 271.784 795.908 285.252 C 792.812 284.958 791.77 284.413 788.951 283.247 C 788.7 280.704 786.797 275.997 785.846 273.362 z"></path>
<path transform="translate(0,0)" fill="rgb(100,181,224)" d="M 874.989 221.336 C 899.391 217.788 921.565 232.525 915.542 259.096 C 913.926 266.225 905.714 271.585 899.559 274.364 C 886.833 280.11 872.95 276.607 859.592 278.353 C 849.524 279.711 840.354 284.373 831.439 288.974 C 821.735 294.548 814.926 301.905 807.124 309.799 C 812.473 273.545 837.692 231.124 874.989 221.336 z"></path>
<path transform="translate(0,0)" fill="rgb(100,181,224)" d="M 705.916 206.404 C 752.444 207.074 771.852 268.992 773.784 306.953 C 769.424 301.261 764.79 295.544 760.327 289.912 C 746.411 275.207 731.95 266.338 711.522 263.528 C 698.338 261.714 677.551 255.216 676.202 239.094 C 674.537 219.198 687.029 208.673 705.916 206.404 z"></path>
<path transform="translate(0,0)" fill="rgb(248,252,252)" fill-opacity="0.545098" d="M 1163.48 891.702 C 1160.7 891.74 1156.04 887.689 1153.86 885.833 C 1116.3 853.825 1097.99 807.892 1062.67 773.443 C 1040.1 751.426 1022.25 742.876 995.631 728.327 C 1058.1 744.801 1086.98 780.812 1122.26 831.411 C 1126.32 838.299 1131.53 844.873 1136.36 851.281 C 1136.23 852.797 1135.89 853.112 1136.49 854.59 C 1141.32 866.528 1143.4 873.687 1153.89 882.623 C 1157.27 885.536 1160 888.054 1163.19 891.183 L 1163.48 891.702 z"></path>
<path transform="translate(0,0)" fill="url(#svgi_r_1j_9ca7cf47-a4e8-4386-9bae-c812b74f1d97__Gradient1)" d="M 913.102 743.891 C 914.825 750.55 915.087 757.384 918.226 763.409 L 918.626 764.352 C 922.251 773.113 925.521 791.423 930.219 801.47 C 937.649 817.356 945.383 831.835 955.893 846.004 C 959.637 851.052 968.155 860.606 970.925 864.911 L 970.159 864.35 C 965.359 860.796 962.073 855.927 957.761 853.957 C 955.164 854.385 956.132 853.964 954.13 855.942 L 953.144 854.971 C 954.471 851.174 954.696 852.394 953.366 849.557 L 949.211 846.51 L 948.061 846.953 C 949.773 854.998 957.774 861.845 959.837 870.122 C 957.246 867.904 954.12 864.336 951.808 861.763 C 935.586 839.002 924.856 820.547 914.855 794.289 C 913.347 789.879 912.641 786.671 911.645 782.1 C 912.101 779.646 911.326 767.829 911.41 763.959 C 911.573 756.46 912.156 751.384 913.102 743.891 z"></path>
<path transform="translate(0,0)" fill="rgb(248,252,252)" fill-opacity="0.0627451" d="M 959.837 870.122 C 957.774 861.845 949.773 854.998 948.061 846.953 L 949.211 846.51 L 953.366 849.557 C 954.696 852.394 954.471 851.174 953.144 854.971 L 954.13 855.942 C 956.132 853.964 955.164 854.385 957.761 853.957 C 962.073 855.927 965.359 860.796 970.159 864.35 L 970.925 864.911 C 977.363 870.695 1000.18 888.998 1004.26 894.096 L 1001.81 894.847 C 1004.1 898.553 1006.83 899.017 1007.91 902.575 C 1000.43 904.778 999.07 900.491 997.971 908.852 C 995.535 911.288 993.361 911.373 989.9 911.358 C 988.554 911.345 987.209 911.301 985.866 911.226 C 984.61 909.191 984.889 910.106 985.258 907.37 C 990.417 903.893 995.035 908.963 997.8 902.486 L 997.114 900.06 L 995.702 899.739 L 995.148 902.79 C 984.862 891.963 969.757 882.651 959.837 870.122 z"></path>
<path transform="translate(0,0)" fill="rgb(248,252,252)" fill-opacity="0.439216" d="M 1148.4 865.233 C 1153.72 870.038 1159.08 874.805 1164.48 879.532 L 1161.79 880.757 C 1160.77 884.36 1161.64 887.784 1163.19 891.183 C 1160 888.054 1157.27 885.536 1153.89 882.623 C 1150.85 877.206 1146.09 871.523 1148.4 865.233 z"></path>
<path transform="translate(0,0)" fill="rgb(248,252,252)" fill-opacity="0.756863" d="M 911.645 782.1 C 906.619 763.124 907.211 750.318 916.7 733.035 C 916.163 743.527 916.989 753.03 918.226 763.409 C 915.087 757.384 914.825 750.55 913.102 743.891 C 912.156 751.384 911.573 756.46 911.41 763.959 C 911.326 767.829 912.101 779.646 911.645 782.1 z"></path>
<path transform="translate(0,0)" fill="rgb(248,252,252)" fill-opacity="0.494118" d="M 1136.36 851.281 C 1138.29 853.481 1147.23 863.422 1148.4 865.233 C 1146.09 871.523 1150.85 877.206 1153.89 882.623 C 1143.4 873.687 1141.32 866.528 1136.49 854.59 C 1135.89 853.112 1136.23 852.797 1136.36 851.281 z"></path>
<path transform="translate(0,0)" fill="rgb(158,204,234)" fill-opacity="0.831373" d="M 785.846 273.362 C 786.797 275.997 788.7 280.704 788.951 283.247 C 789.364 286.165 789.298 290.031 790.999 291.667 C 792.197 290.016 793.905 287.432 795.354 286.135 C 794.362 291.486 793.115 301.322 790.574 305.449 L 789.461 305.122 C 787.721 300.706 786.216 279.093 785.846 273.362 z"></path>
<path transform="translate(0,0)" fill="rgb(100,181,224)" fill-opacity="0.980392" d="M 788.951 283.247 C 791.77 284.413 792.812 284.958 795.908 285.252 L 795.354 286.135 C 793.905 287.432 792.197 290.016 790.999 291.667 C 789.298 290.031 789.364 286.165 788.951 283.247 z"></path>
</svg>
